<svg width="22" height="21" viewBox="0 0 22 21" fill="none" xmlns="http://www.w3.org/2000/svg">
<path d="M21.6666 10.5C21.6666 4.70041 16.9662 0 11.1666 0C5.36704 0 0.666626 4.70041 0.666626 10.5C0.666626 15.7418 4.50569 20.0854 9.526 20.8729V13.5352H6.85996V10.5H9.526V8.18672C9.526 5.55555 11.0928 4.10156 13.4922 4.10156C14.6406 4.10156 15.8424 4.30664 15.8424 4.30664V6.89063H14.5176C13.2133 6.89063 12.8073 7.7007 12.8073 8.53125V10.5H15.7193L15.2538 13.5352H12.8073V20.8729C17.8276 20.0854 21.6666 15.7418 21.6666 10.5Z" fill="#1877F2"/>
<path d="M15.2539 13.5352L15.7194 10.5H12.8073V8.53125C12.8073 7.7007 13.2133 6.89062 14.5176 6.89062H15.8424V4.30664C15.8424 4.30664 14.6407 4.10156 13.4922 4.10156C11.0928 4.10156 9.52602 5.55555 9.52602 8.18672V10.5H6.85999V13.5352H9.52602V20.8729C10.0613 20.9569 10.6088 21 11.1666 21C11.7245 21 12.272 20.9569 12.8073 20.8729V13.5352H15.2539Z" fill="white"/>
</svg>
