<svg width="16" height="16" viewBox="0 0 16 16" fill="none" xmlns="http://www.w3.org/2000/svg">
<path d="M8.46994 0.5C4.32837 0.5 0.939819 3.88102 0.939819 8.04518C0.939819 11.8102 3.69584 14.9352 7.29524 15.5V10.2289H5.38259V8.04518H7.29524V6.38102C7.29524 4.49096 8.41723 3.45181 10.1416 3.45181C10.9624 3.45181 11.8208 3.59488 11.8208 3.59488V5.45482H10.872C9.93831 5.45482 9.64464 6.03464 9.64464 6.62952V8.04518H11.738L11.3992 10.2289H9.64464V15.5C11.4191 15.2198 13.0349 14.3144 14.2003 12.9473C15.3658 11.5803 16.0041 9.8416 16.0001 8.04518C16.0001 3.88102 12.6115 0.5 8.46994 0.5Z" fill="#CDCBC8"/>
</svg>
