<svg width="15" height="16" viewBox="0 0 15 16" fill="none" xmlns="http://www.w3.org/2000/svg">
<path d="M9.9 8C9.9 8.47468 9.75924 8.93869 9.49553 9.33337C9.23181 9.72805 8.85698 10.0357 8.41844 10.2173C7.9799 10.399 7.49734 10.4465 7.03178 10.3539C6.56623 10.2613 6.13859 10.0327 5.80294 9.69705C5.4673 9.36141 5.23872 8.93377 5.14611 8.46822C5.05351 8.00266 5.10104 7.5201 5.28269 7.08156C5.46434 6.64302 5.77195 6.26819 6.16663 6.00447C6.56131 5.74076 7.02532 5.6 7.5 5.6C8.13591 5.60198 8.74521 5.85547 9.19487 6.30513C9.64453 6.75479 9.89802 7.36409 9.9 8ZM15 4.7V11.3C15 12.4139 14.5575 13.4822 13.7698 14.2698C12.9822 15.0575 11.9139 15.5 10.8 15.5H4.2C3.08609 15.5 2.0178 15.0575 1.23015 14.2698C0.442499 13.4822 0 12.4139 0 11.3V4.7C0 3.58609 0.442499 2.5178 1.23015 1.73015C2.0178 0.942499 3.08609 0.5 4.2 0.5H10.8C11.9139 0.5 12.9822 0.942499 13.7698 1.73015C14.5575 2.5178 15 3.58609 15 4.7ZM11.1 8C11.1 7.28799 10.8889 6.59196 10.4933 5.99995C10.0977 5.40793 9.53547 4.94651 8.87766 4.67403C8.21985 4.40156 7.49601 4.33027 6.79767 4.46917C6.09934 4.60808 5.45788 4.95095 4.95442 5.45442C4.45095 5.95788 4.10808 6.59934 3.96917 7.29767C3.83027 7.99601 3.90156 8.71985 4.17403 9.37766C4.44651 10.0355 4.90793 10.5977 5.49995 10.9933C6.09196 11.3889 6.78799 11.6 7.5 11.6C8.45478 11.6 9.37045 11.2207 10.0456 10.5456C10.7207 9.87045 11.1 8.95478 11.1 8ZM12.3 4.1C12.3 3.922 12.2472 3.74799 12.1483 3.59999C12.0494 3.45198 11.9089 3.33663 11.7444 3.26851C11.58 3.20039 11.399 3.18257 11.2244 3.21729C11.0498 3.25202 10.8895 3.33774 10.7636 3.4636C10.6377 3.58947 10.552 3.74984 10.5173 3.92442C10.4826 4.099 10.5004 4.27996 10.5685 4.44442C10.6366 4.60887 10.752 4.74943 10.9 4.84832C11.048 4.94722 11.222 5 11.4 5C11.6387 5 11.8676 4.90518 12.0364 4.7364C12.2052 4.56761 12.3 4.33869 12.3 4.1Z" fill="#CDCBC8"/>
</svg>
