<?xml version="1.0"?>
<svg width="22" height="22" xmlns="http://www.w3.org/2000/svg" xmlns:svg="http://www.w3.org/2000/svg">
 <defs>
  <linearGradient id="paint0_linear_145_546" x1="0.5" x2="0.5" y1="0" y2="1">
   <stop stop-color="#FF3D00"/>
   <stop offset="1" stop-color="#EB62BC"/>
  </linearGradient>
 </defs>
 <g class="layer">
  <title>Layer 1</title>
  <path clip-rule="evenodd" d="m11.03,0.3c-2.89,0 -3.26,0.01 -4.39,0.06c-1.14,0.06 -1.91,0.24 -2.59,0.5c-0.7,0.27 -1.3,0.64 -1.89,1.23c-0.6,0.59 -0.96,1.19 -1.23,1.89c-0.27,0.68 -0.45,1.45 -0.5,2.59c-0.05,1.14 -0.06,1.5 -0.06,4.4c0,2.89 0.01,3.26 0.06,4.39c0.05,1.14 0.23,1.91 0.5,2.59c0.27,0.7 0.63,1.3 1.23,1.89c0.59,0.6 1.18,0.96 1.89,1.23c0.67,0.27 1.45,0.45 2.59,0.5c1.13,0.05 1.5,0.06 4.39,0.06c2.9,0 3.26,-0.01 4.4,-0.06c1.14,-0.05 1.91,-0.23 2.59,-0.5c0.7,-0.27 1.3,-0.63 1.89,-1.23c0.59,-0.59 0.96,-1.19 1.23,-1.89c0.26,-0.68 0.44,-1.45 0.5,-2.59c0.05,-1.13 0.06,-1.5 0.06,-4.39c0,-2.9 -0.01,-3.26 -0.06,-4.4c-0.06,-1.14 -0.24,-1.91 -0.5,-2.59c-0.27,-0.7 -0.64,-1.3 -1.23,-1.89c-0.59,-0.59 -1.19,-0.96 -1.89,-1.23c-0.68,-0.26 -1.46,-0.44 -2.59,-0.5c-1.14,-0.05 -1.5,-0.06 -4.4,-0.06l0,0zm-0.95,1.92c0.18,0 0.38,0 0.6,0l0.35,0c2.85,0 3.19,0.01 4.31,0.06c1.04,0.05 1.61,0.22 1.99,0.37c0.49,0.19 0.85,0.43 1.22,0.8c0.37,0.37 0.61,0.73 0.8,1.23c0.15,0.37 0.32,0.94 0.37,1.98c0.05,1.12 0.06,1.46 0.06,4.3c0,2.85 -0.01,3.19 -0.06,4.31c-0.05,1.04 -0.22,1.61 -0.37,1.98c-0.19,0.5 -0.43,0.86 -0.8,1.23c-0.37,0.37 -0.73,0.6 -1.22,0.8c-0.38,0.14 -0.95,0.32 -1.99,0.36c-1.12,0.06 -1.46,0.07 -4.31,0.07c-2.84,0 -3.18,-0.01 -4.31,-0.07c-1.04,-0.04 -1.6,-0.22 -1.98,-0.36c-0.49,-0.2 -0.85,-0.43 -1.22,-0.8c-0.38,-0.37 -0.61,-0.73 -0.8,-1.23c-0.15,-0.37 -0.32,-0.94 -0.37,-1.98c-0.05,-1.12 -0.06,-1.46 -0.06,-4.31c0,-2.85 0.01,-3.18 0.06,-4.31c0.05,-1.04 0.22,-1.6 0.37,-1.98c0.19,-0.5 0.42,-0.85 0.8,-1.22c0.37,-0.38 0.73,-0.61 1.22,-0.8c0.38,-0.15 0.94,-0.32 1.98,-0.37c0.99,-0.04 1.37,-0.06 3.36,-0.06l0,0zm5.37,3.05c0,-0.7 0.57,-1.28 1.28,-1.28l0,0c0.7,0 1.28,0.58 1.28,1.28c0,0.71 -0.58,1.28 -1.28,1.28c-0.71,0 -1.28,-0.57 -1.28,-1.28zm-4.42,0.22c-3.02,0 -5.47,2.45 -5.47,5.48c0,3.02 2.45,5.47 5.47,5.47c3.03,0 5.48,-2.45 5.48,-5.47c0,-3.03 -2.45,-5.48 -5.48,-5.48zm3.56,5.48c0,-1.97 -1.59,-3.56 -3.56,-3.56c-1.96,0 -3.55,1.59 -3.55,3.56c0,1.96 1.59,3.55 3.55,3.55c1.97,0 3.56,-1.59 3.56,-3.55z" fill="url(#paint0_linear_145_546)" fill-rule="evenodd" id="svg_1"/>
 </g>
</svg>