<svg width="14" height="16" viewBox="0 0 14 16" fill="none" xmlns="http://www.w3.org/2000/svg">
<path d="M11.986 3.5067C11.178 2.97988 10.5948 2.13696 10.4129 1.15435C10.3736 0.942046 10.352 0.723554 10.352 0.5H7.77318L7.76905 10.835C7.7257 11.9923 6.77316 12.9212 5.60544 12.9212C5.24251 12.9212 4.90077 12.8305 4.59988 12.6721C3.90989 12.309 3.4377 11.5858 3.4377 10.7535C3.4377 9.55813 4.41019 8.58563 5.60544 8.58563C5.82856 8.58563 6.0426 8.62244 6.24506 8.68586V6.05318C6.03554 6.02465 5.82265 6.00682 5.60544 6.00682C2.98814 6.00682 0.858887 8.13617 0.858887 10.7535C0.858887 12.3593 1.6612 13.7804 2.88522 14.6397C3.65621 15.181 4.59402 15.5 5.60544 15.5C8.22274 15.5 10.352 13.3708 10.352 10.7535V5.51276C11.3634 6.23871 12.6026 6.6665 13.9398 6.6665V4.0877C13.2195 4.0877 12.5486 3.87356 11.986 3.5067Z" fill="#CDCBC8"/>
</svg>
