<svg width="19" height="21" viewBox="0 0 19 21" fill="none" xmlns="http://www.w3.org/2000/svg">
<path fill-rule="evenodd" clip-rule="evenodd" d="M13.8988 7.51613C15.2911 8.50591 16.9585 9.03472 18.6667 9.02831V5.64283C18.3309 5.64376 17.996 5.60781 17.668 5.53562V8.23272C15.9559 8.23576 14.2861 7.70087 12.8945 6.70361V13.6664C12.8903 14.8089 12.5769 15.929 11.9877 16.9079C11.3985 17.8868 10.5554 18.688 9.54772 19.2266C8.54006 19.7651 7.40545 20.0209 6.26419 19.9669C5.12292 19.9128 4.01756 19.5509 3.06531 18.9196C3.94612 19.8107 5.07158 20.4205 6.29917 20.6717C7.52677 20.9228 8.80128 20.804 9.96131 20.3303C11.1213 19.8567 12.1147 19.0494 12.8157 18.0108C13.5166 16.9721 13.8936 15.7489 13.8988 14.4959V7.51613ZM15.1345 4.06294C14.4265 3.29551 13.9921 2.31554 13.8988 1.27556V0.835449H12.9509C13.0681 1.49651 13.3231 2.12551 13.6993 2.68156C14.0755 3.23761 14.5645 3.70827 15.1345 4.06294ZM5.26023 16.2394C4.93167 15.8097 4.73033 15.2965 4.67911 14.7581C4.62789 14.2196 4.72884 13.6776 4.97049 13.1938C5.21214 12.7099 5.58477 12.3035 6.04597 12.021C6.50718 11.7385 7.03843 11.5911 7.57928 11.5956C7.87788 11.5955 8.17474 11.6412 8.4595 11.7311V8.23272C8.12662 8.18864 7.79088 8.16977 7.45515 8.1763V10.896C6.76175 10.6768 6.01126 10.7266 5.35295 11.0356C4.69463 11.3445 4.17672 11.89 3.90224 12.5634C3.62775 13.2368 3.6168 13.9889 3.87155 14.67C4.12631 15.3511 4.62811 15.9114 5.27715 16.2394H5.26023Z" fill="#EE1D52"/>
<path fill-rule="evenodd" clip-rule="evenodd" d="M12.894 6.68104C14.2856 7.6783 15.9554 8.21319 17.6675 8.21015V5.51305C16.692 5.30681 15.8059 4.7996 15.134 4.06294C14.564 3.70827 14.075 3.23761 13.6988 2.68156C13.3225 2.12551 13.0676 1.49651 12.9504 0.835449H10.4564V14.4959C10.4541 15.1005 10.2625 15.6893 9.90846 16.1795C9.55445 16.6696 9.05582 17.0367 8.48256 17.229C7.90931 17.4213 7.29021 17.4293 6.71219 17.2518C6.13417 17.0743 5.62624 16.7203 5.25971 16.2394C4.67883 15.9463 4.21364 15.466 3.93919 14.8761C3.66473 14.2862 3.59703 13.6211 3.74699 12.9879C3.89696 12.3548 4.25584 11.7907 4.76575 11.3866C5.27566 10.9825 5.90685 10.7619 6.55747 10.7605C6.85599 10.7615 7.15269 10.8071 7.4377 10.896V8.1763C6.20628 8.20586 5.01029 8.59433 3.99654 9.29402C2.98279 9.99371 2.19539 10.9742 1.73101 12.1151C1.26663 13.2559 1.14547 14.5076 1.3824 15.7164C1.61934 16.9251 2.20406 18.0384 3.06479 18.9195C4.01724 19.5554 5.12434 19.9211 6.26816 19.9775C7.41199 20.0339 8.5497 19.779 9.56011 19.2399C10.5705 18.7009 11.4158 17.8978 12.0058 16.9163C12.5959 15.9348 12.9087 14.8116 12.9109 13.6664L12.894 6.68104Z" fill="black"/>
<path fill-rule="evenodd" clip-rule="evenodd" d="M17.6678 5.51269V4.78481C16.772 4.78862 15.8935 4.53818 15.1343 4.06258C15.8045 4.80136 16.6914 5.30898 17.6678 5.51269ZM12.9507 0.835085C12.9507 0.705308 12.9112 0.569889 12.8943 0.440112V0H9.45236V13.6661C9.44937 14.4313 9.14291 15.164 8.60023 15.7035C8.05755 16.243 7.32299 16.5452 6.55777 16.5437C6.1072 16.546 5.66249 16.4416 5.26001 16.239C5.62654 16.7199 6.13447 17.074 6.71249 17.2515C7.29051 17.4289 7.90961 17.421 8.48286 17.2286C9.05612 17.0363 9.55475 16.6693 9.90876 16.1791C10.2628 15.6889 10.4544 15.1002 10.4567 14.4955V0.835085H12.9507ZM7.438 8.17029V7.39727C6.02168 7.20487 4.58194 7.49784 3.35344 8.22844C2.12494 8.95904 1.18011 10.0842 0.672937 11.4205C0.165763 12.7568 0.126148 14.2255 0.56055 15.5873C0.994952 16.949 1.87776 18.1234 3.06509 18.9192C2.21087 18.036 1.63238 16.9232 1.40028 15.7166C1.16818 14.51 1.29253 13.262 1.75812 12.1249C2.22372 10.9879 3.01041 10.011 4.02208 9.31375C5.03375 8.61647 6.22661 8.22894 7.45492 8.1985L7.438 8.17029Z" fill="#69C9D0"/>
</svg>
